<svg viewBox="0 0 72 72" xmlns="http://www.w3.org/2000/svg"><path d="m57.6 48.95-41.6.347c-1.104.0092-2-.8955-2-2v-6.75c0-1.104.8955-2 2-2l41.89.6072z" fill="#a57939"/><path d="m32.88 49.47h-17.88c-1.104 0-2 .7013-2 1.566v4.699c0 .865.8955 1.566 2 1.566h42c1.104 0 2-.7013 2-1.566v-4.699c0-.865-.8955-1.566-2-1.566h-17.79" fill="#f4aa41"/><path d="m48 49.3h9c1.104 0 2 .7168 2 1.601v4.803c0 .8841-.8955 1.601-2 1.601h-9z" fill="#e27022"/><path d="m59 27.53c0 .7243-.8955 1.312-2 1.312h-42c-1.104 0-2-.5872-2-1.312 1.484-7.465 11.21-13.23 23-13.23s21.52 5.765 23 13.23z" fill="#f4aa41"/><path d="m42 15.14c3.074 3.299 5.156 7.823 6 13.67h9c1.104 0 2-.5738 2-1.281-1.5-7.201-10.66-11.53-17-12.39z" fill="#e27022"/><path d="m49.94 35.25h-27.88l13.94 13.94z" fill="#fcea2b" transform="matrix(.5893 0 0 .5893 14.26 17.08)"/><path d="m48 38.48v10.82h8c1.104 0 2-.8955 2-2v-6.75c0-1.104-.8955-2-2-2h-6.666" fill="#6a462f"/><g stroke-width="2"><path d="m16.33 31.2h39.35v2.093h-39.35z" fill="#ea5a47" fill-rule="evenodd" stroke="#ea5a47" stroke-linecap="round" stroke-linejoin="round"/><path d="m49.04 31.2h6.661v2.126h-6.661z" fill="#d22f27" fill-rule="evenodd" stroke="#d22f27" stroke-linecap="round" stroke-linejoin="round"/><path d="m15.89 37.09 40.58-.3828c2.212-.4852 2.519-1.021 2.732-2.267-1.861 1.266-3.301 1.278-4.582 1.438-2.319-.01147-4.462.02441-5.933-1.85l-5.997-.4466-4.338 1.914-4.338-.0638-4.785-1.659-5.104-.2552c-1.222 1.475-3.522 1.902-4.913 2.361-2.134-.3929-4.418.8084-6.398-1.438.4895 1.538.4986 1.973 3.08 2.65z" fill="#b1cc33" stroke="#b1cc33" stroke-linejoin="round"/><path d="m49.02 37.84 7.438-1.134c2.212-.4852 2.519-1.021 2.732-2.267-1.861 1.266-3.301 1.278-4.582 1.438-2.319-.01147-2.088-.01915-4.079-1.018l-1.509-.8729z" fill="#5c9e31" stroke="#5c9e31" stroke-linejoin="round"/><path d="m49.04 31.2h4.185v2.126h-4.185z" fill="#d22f27" fill-rule="evenodd" stroke="#d22f27" stroke-linecap="round"/><path d="m32.88 49.3h-16.88c-1.104 0-2-.8955-2-2v-6.75c0-1.104.8955-2 2-2h40c1.104 0 2 .8955 2 2v6.75c0 1.104-.8955 2-2 2h-16.79z" fill="none" stroke="#000" stroke-linecap="round" stroke-linejoin="round" stroke-miterlimit="10"/><path d="m32.88 49.47h-17.88c-1.104 0-2 .7013-2 1.566v4.699c0 .865.8955 1.566 2 1.566h42c1.104 0 2-.7013 2-1.566v-4.699c0-.865-.8955-1.566-2-1.566h-17.79z" fill="none" stroke="#000" stroke-linecap="round" stroke-linejoin="round" stroke-miterlimit="10"/><path d="m59 27.93c0 .7243-.8955 1.312-2 1.312h-42c-1.104 0-2-.5872-2-1.312 1.484-7.465 11.21-13.23 23-13.23s21.52 5.765 23 13.23z" fill="none" stroke="#000" stroke-linecap="round" stroke-linejoin="round" stroke-miterlimit="10"/><path d="m43.24 38.93h-14.48l7.242 7.164z" fill="none" stroke="#000" stroke-linecap="round" stroke-linejoin="round" stroke-miterlimit="10"/><path d="m59.19 34.1c-.7619.3964-1.358.8199-2.487 1.002-1.368.3587-3.178.2195-4.602 0-1.928-.3112-2.302-1.326-4.602-1.708-1.424-.2195-3.178-.2195-4.602 0-2.299.3815-2.673 1.396-4.602 1.708-1.424.2195-3.178.2195-4.602 0-1.928-.3112-2.302-1.326-4.602-1.708-1.424-.2195-3.178-.2195-4.602 0-2.299.3815-2.673 1.396-4.602 1.708-1.424.2195-3.178.2195-4.602 0-1.129-.1823-1.725-.6058-2.487-1.002" fill="none" stroke="#000" stroke-linecap="round" stroke-linejoin="round" stroke-miterlimit="10"/></g></svg>